<?xml version="1.0" encoding="UTF-8"?>
<svg id="Calque_2" data-name="Calque 2" xmlns="http://www.w3.org/2000/svg" viewBox="0 0 64.56 56.56">
  <defs>
    <style>
      .cls-1 {
        fill: #feca81;
      }

      .cls-2 {
        fill: #fe9603;
      }
    </style>
  </defs>
  <g id="Calque_2-2" data-name="Calque 2">
    <g id="Calque_1-2" data-name="Calque 1-2">
      <g>
        <path class="cls-1" d="M0,28.28L28.28,0l28.29,28.28-28.29,28.28L0,28.28Z"/>
        <path class="cls-2" d="M8,28.28L36.28,0l28.28,28.28-28.28,28.28L8,28.28Z"/>
        <g>
          <path d="M23.09,34.54h-2.04c.04-.92.06-3.05.06-6.38v-2.27c0-3.19-.04-5.21-.11-6.05h2.1c-.07.63-.1,2.31-.1,5.04v1.64l9.37-.4v-1.68c0-2.45-.03-3.98-.08-4.6h2.14c-.03.22-.06,1.29-.1,3.2s-.06,3.07-.06,3.48v2.1c0,3.42.03,5.39.08,5.92h-2.1c.08-.95.13-2.57.13-4.85v-2.18l-9.37.4v1.34c0,2.24.03,4,.08,5.29Z"/>
          <path d="M50.05,32.99l.21,1.68c-.7.14-1.65.21-2.86.21-1.36,0-2.58-.15-3.67-.46s-1.95-.69-2.58-1.15c-.64-.46-1.17-.99-1.6-1.58s-.72-1.13-.87-1.63c-.15-.5-.23-.96-.23-1.4,0-.9.21-1.8.63-2.71s1.04-1.79,1.86-2.65c.82-.85,1.93-1.62,3.33-2.3,1.4-.68,2.99-1.18,4.77-1.5l.32,1.76c-1.6.18-3.06.6-4.39,1.25s-2.39,1.48-3.19,2.5-1.2,2.11-1.2,3.29c0,1.41.58,2.6,1.75,3.55s2.93,1.43,5.28,1.43c.78,0,1.6-.1,2.44-.29Z"/>
        </g>
      </g>
    </g>
  </g>
</svg>